<svg width="800" height="800" viewBox="0 0 24 24" xmlns="http://www.w3.org/2000/svg"><path d="m12.992 20.912 3.5 1.838a2.131 2.131 0 0 0 3.088-2.25l-.667-3.893a2.129 2.129 0 0 1 .613-1.887l2.828-2.757a2.131 2.131 0 0 0-1.181-3.635l-3.909-.568a2.133 2.133 0 0 1-1.6-1.166l-1.753-3.538a2.131 2.131 0 0 0-3.822 0L8.341 6.6a2.133 2.133 0 0 1-1.6 1.166l-3.909.568a2.131 2.131 0 0 0-1.181 3.635l2.828 2.757a2.129 2.129 0 0 1 .613 1.887L4.42 20.5a2.131 2.131 0 0 0 3.092 2.25l3.5-1.838a2.135 2.135 0 0 1 1.98 0Z" style="fill:#ffce69"/><path d="m16.49 22.75-3.5-1.84a2.162 2.162 0 0 0-1.98 0l-3.5 1.84a2.132 2.132 0 0 1-3.09-2.25l.55-3.18a2.114 2.114 0 0 0 2.54.43l3.5-1.84a2.162 2.162 0 0 1 1.98 0l3.5 1.84a2.114 2.114 0 0 0 2.54-.43l.55 3.18a2.132 2.132 0 0 1-3.09 2.25Z" style="fill:#f19b5f"/><path d="M23.053 12.683a3.132 3.132 0 0 0-1.737-5.341l-3.909-.568a1.13 1.13 0 0 1-.851-.619l-1.748-3.541a3.131 3.131 0 0 0-5.616 0L7.444 6.155a1.13 1.13 0 0 1-.851.619l-3.909.568a3.132 3.132 0 0 0-1.737 5.342l2.829 2.756a1.131 1.131 0 0 1 .326 1l-.667 3.892a3.131 3.131 0 0 0 4.542 3.3l3.5-1.838a1.125 1.125 0 0 1 1.052 0l3.5 1.838a3.11 3.11 0 0 0 3.3-.239 3.109 3.109 0 0 0 1.245-3.063l-.674-3.889a1.13 1.13 0 0 1 .326-1Zm-4.226 1.325a3.131 3.131 0 0 0-.9 2.772l.667 3.892a1.131 1.131 0 0 1-1.642 1.193l-3.5-1.838a3.134 3.134 0 0 0-2.914 0l-3.5 1.838a1.131 1.131 0 0 1-1.642-1.193l.667-3.891a3.132 3.132 0 0 0-.9-2.773l-2.819-2.757a1.132 1.132 0 0 1 .627-1.93l3.909-.568A3.128 3.128 0 0 0 9.237 7.04l1.748-3.54a1.165 1.165 0 0 1 2.03 0l1.748 3.54a3.128 3.128 0 0 0 2.357 1.713l3.909.568a1.132 1.132 0 0 1 .627 1.93Z" style="fill:#6c2e7c" data-name="Layer 4"/></svg>
